<?xml version="1.0" standalone="no"?>
<!DOCTYPE svg PUBLIC "-//W3C//DTD SVG 20010904//EN"
 "http://www.w3.org/TR/2001/REC-SVG-20010904/DTD/svg10.dtd">
<svg version="1.0" xmlns="http://www.w3.org/2000/svg"
 width="240px" height="80px" viewBox="0 0 576.000000 433.000000"
 preserveAspectRatio="xMidYMid meet">
<g transform="translate(0.000000,433.000000) scale(0.100000,-0.100000)"
fill="rgb(0, 40, 90)" stroke="none">
<path d="M1834 4315 c-92 -16 -196 -53 -264 -92 -76 -44 -165 -137 -194 -203
-22 -50 -31 -60 -59 -65 -81 -18 -132 -61 -169 -140 -20 -44 -23 -65 -22 -180
0 -100 5 -151 23 -222 l22 -91 -35 -46 c-115 -151 -29 -375 160 -414 42 -8 47
-16 63 -87 21 -91 78 -192 152 -268 l69 -70 0 -71 0 -71 -243 -94 c-133 -52
-304 -118 -379 -147 -76 -29 -155 -62 -176 -73 -118 -60 -225 -190 -267 -323
l-25 -79 0 -512 c0 -493 1 -513 20 -545 11 -18 34 -41 52 -52 31 -19 51 -20
395 -20 348 0 363 1 373 19 15 29 12 56 -8 74 -15 14 -41 17 -140 17 l-122 0
0 498 c0 549 1 542 -60 542 -54 0 -60 -23 -60 -227 l0 -183 -170 0 -170 0 0
173 c0 228 21 308 107 414 53 65 125 107 298 174 88 34 198 77 244 95 49 20
89 30 95 25 6 -4 78 -63 159 -129 134 -111 152 -122 188 -122 22 0 51 7 64 16
l25 16 0 -195 c0 -118 -4 -198 -10 -202 -16 -10 -59 -89 -83 -152 -21 -54 -22
-79 -27 -398 l-5 -340 -65 -5 c-80 -6 -90 -12 -90 -54 0 -45 15 -54 90 -58
l65 -3 5 -136 c6 -149 14 -173 73 -209 30 -19 53 -20 394 -20 348 0 363 1 373
19 15 29 12 56 -8 74 -15 14 -41 17 -140 17 l-121 0 -3 506 c-3 487 -4 506
-22 520 -29 21 -63 17 -80 -8 -13 -18 -16 -56 -16 -205 l0 -183 -171 0 -171 0
4 203 3 202 37 78 c45 93 120 173 200 210 43 20 188 78 474 187 16 7 42 -10
140 -92 174 -147 191 -158 236 -158 21 0 50 7 63 16 l25 16 0 -646 0 -646
-121 0 c-66 0 -129 -5 -140 -10 -23 -13 -26 -71 -5 -89 10 -8 249 -11 904 -9
l891 3 36 35 c43 41 55 81 55 181 0 87 -16 113 -66 107 -39 -4 -54 -38 -54
-123 0 -42 -5 -76 -12 -83 -8 -8 -60 -12 -170 -12 l-158 0 0 255 0 255 169 0
168 0 5 -50 c3 -27 11 -56 18 -65 20 -24 67 -19 86 9 14 22 15 62 12 323 -5
337 -10 366 -88 495 l-40 67 0 185 c0 103 3 186 8 186 4 0 16 -7 26 -15 11 -8
36 -15 56 -15 42 0 58 10 235 158 l120 100 75 -28 c165 -61 368 -141 418 -165
102 -48 187 -150 223 -266 16 -50 19 -92 19 -245 l0 -184 -170 0 -170 0 0 188
c0 170 -2 191 -18 205 -25 23 -69 22 -82 -2 -6 -13 -10 -194 -10 -520 l0 -501
-323 0 c-363 0 -365 0 -353 -62 5 -25 13 -38 29 -42 12 -3 265 -6 563 -6 l541
0 33 23 c63 42 74 67 78 175 4 113 -5 135 -58 135 -48 0 -60 -23 -60 -118 0
-50 -5 -86 -12 -93 -8 -8 -60 -12 -170 -12 l-158 0 0 255 0 255 169 0 168 0 5
-52 c8 -75 54 -102 99 -57 20 20 21 27 17 322 -4 276 -6 308 -26 367 -40 120
-122 233 -219 301 -23 16 -127 62 -230 103 -344 134 -548 213 -585 227 l-38
13 0 73 0 72 68 68 c72 73 120 153 147 248 28 96 33 105 57 105 34 0 119 44
150 76 79 86 96 205 43 303 -16 29 -40 61 -53 69 -22 14 -23 20 -17 66 8 67
44 154 90 221 78 112 58 193 -80 323 -77 73 -83 82 -82 117 1 34 -5 44 -59 94
-97 92 -240 156 -413 186 -327 58 -674 -73 -777 -292 -27 -58 -32 -63 -74 -73
-25 -6 -60 -23 -77 -36 l-33 -25 -77 24 c-203 64 -457 55 -637 -22 l-48 -21
-42 38 c-22 21 -56 49 -74 62 -27 20 -32 29 -27 52 19 85 -175 221 -395 278
-110 28 -286 35 -396 15z m374 -126 c79 -20 143 -46 209 -85 l43 -25 -22 -29
c-32 -44 -17 -78 47 -109 53 -25 175 -118 175 -134 0 -5 -22 -33 -48 -62 -26
-28 -59 -75 -72 -104 -18 -38 -32 -53 -50 -57 -14 -3 -40 -12 -58 -20 -18 -8
-34 -14 -36 -14 -2 0 -6 18 -10 40 -4 28 -18 52 -45 79 -44 44 -114 65 -281
83 -155 16 -396 -10 -481 -53 -43 -21 -78 -72 -86 -126 -8 -50 -16 -59 -68
-72 -48 -12 -85 -50 -85 -86 0 -23 -17 -35 -50 -35 -21 0 -33 44 -52 187 -13
95 -1 191 30 233 10 14 39 31 63 38 97 30 99 31 133 106 100 219 426 326 744
245z m2230 21 c102 -13 233 -56 307 -101 l55 -33 -20 -21 c-40 -43 -21 -84 58
-122 65 -32 194 -149 212 -193 12 -28 10 -35 -22 -88 -56 -90 -76 -135 -94
-206 -19 -75 -43 -87 -55 -28 -9 45 -34 70 -83 83 -53 14 -66 26 -66 57 0 47
-39 111 -83 136 -134 78 -579 81 -729 5 -35 -18 -78 -66 -78 -88 0 -6 -6 -11
-14 -11 -23 0 -36 25 -30 58 5 27 0 37 -42 82 -26 28 -60 59 -76 68 -37 22
-35 30 10 38 68 12 93 32 113 94 45 135 221 244 433 269 102 12 113 12 204 1z
m-1009 -408 c52 -18 117 -47 146 -64 l53 -31 -21 -29 c-33 -45 -16 -75 68
-121 79 -42 200 -158 210 -200 6 -21 -1 -39 -31 -84 -21 -32 -48 -81 -60 -110
-11 -30 -24 -56 -28 -60 -3 -3 -6 -20 -6 -37 0 -17 -4 -37 -9 -45 -14 -21 -41
-5 -41 24 0 33 -50 85 -82 85 -36 0 -68 27 -68 57 0 42 -38 110 -73 132 -82
50 -318 79 -495 61 -121 -12 -226 -37 -265 -63 -29 -19 -67 -92 -67 -130 0
-29 -32 -57 -67 -57 -32 0 -74 -40 -82 -80 -6 -30 -11 -35 -38 -38 -31 -3 -31
-3 -48 70 -23 101 -30 233 -15 287 16 59 55 97 110 106 65 11 84 28 114 100
50 115 170 204 334 245 63 16 104 19 222 17 133 -3 153 -6 239 -35z m-1302
-172 c105 -17 136 -31 146 -65 5 -16 15 -51 23 -77 11 -37 12 -57 3 -99 -16
-76 -6 -247 20 -350 l23 -87 -35 -46 c-60 -78 -70 -175 -27 -273 l19 -43 -43
-34 c-61 -51 -160 -94 -246 -107 -249 -39 -505 138 -550 380 -5 29 -10 168
-10 307 l0 253 38 10 c57 16 112 81 112 135 0 46 38 74 120 90 89 17 319 20
407 6z m2366 -6 c98 -18 127 -38 127 -87 0 -57 53 -122 112 -138 l38 -10 0
-257 c0 -282 -9 -344 -58 -436 -91 -170 -315 -280 -507 -248 -79 13 -182 59
-241 108 l-43 34 22 48 c45 99 21 223 -56 295 l-31 28 13 60 c14 71 37 122 92
209 38 60 40 69 37 123 -3 44 -11 67 -35 101 -28 39 -30 48 -23 87 7 40 29 68
54 70 6 0 38 6 71 14 86 19 320 19 428 -1z m-3153 -504 c0 -168 -1 -170 -68
-130 -96 59 -96 201 0 260 67 40 68 38 68 -130z m2018 128 c68 -16 91 -36 92
-81 0 -59 60 -129 120 -142 l30 -7 0 -258 c0 -151 -5 -281 -11 -312 -27 -130
-127 -256 -250 -319 -153 -77 -302 -77 -459 -2 -69 33 -169 132 -204 201 -50
99 -56 144 -56 428 l0 262 30 7 c61 13 120 84 120 143 0 45 35 69 125 86 98
19 370 15 463 -6z m1589 -4 c51 -34 73 -71 73 -126 0 -52 -27 -101 -72 -128
-67 -40 -68 -38 -68 130 0 168 0 167 67 124z m-2440 -494 c-1 -166 -2 -168
-65 -130 -45 28 -72 76 -72 130 0 54 27 102 72 130 65 40 67 37 65 -130z
m1302 98 c37 -36 45 -63 38 -125 -6 -55 -54 -109 -104 -119 l-33 -6 0 144 c0
80 3 147 6 151 11 10 61 -14 93 -45z m-1293 -408 c12 -62 46 -143 90 -212 l43
-68 -37 15 c-20 8 -98 39 -172 68 l-135 53 -3 73 -3 72 42 37 41 37 64 -20
c60 -19 64 -22 70 -55z m1401 -70 l-2 -74 -160 -63 c-88 -35 -163 -62 -167
-60 -4 1 8 25 26 52 36 55 80 160 90 215 6 34 10 37 69 55 l62 20 42 -35 43
-35 -3 -75z m-1977 -34 c99 0 138 5 188 21 l62 21 0 -52 0 -51 -89 -73 c-55
-45 -94 -85 -100 -103 -9 -27 -14 -29 -58 -29 -44 0 -49 3 -63 33 -8 17 -52
63 -97 101 l-83 68 0 53 0 52 58 -21 c46 -16 81 -20 182 -20z m2590 -14 l-1
-47 -94 -77 c-58 -48 -97 -87 -101 -103 -6 -22 -11 -25 -54 -25 -44 0 -49 3
-58 28 -6 17 -47 59 -100 103 -90 74 -90 74 -91 122 -1 26 3 47 7 47 5 0 46
-10 92 -21 102 -26 243 -23 330 8 30 10 58 17 63 15 4 -2 7 -24 7 -50z m-2829
-198 l79 -65 -41 -60 c-22 -32 -44 -59 -49 -59 -7 0 -173 133 -219 175 -11 10
1 18 65 43 44 17 81 31 83 32 1 0 39 -30 82 -66z m652 31 c37 -15 67 -30 66
-34 0 -3 -23 -24 -52 -47 -29 -23 -79 -64 -113 -92 l-61 -51 -42 61 c-23 33
-40 64 -39 69 6 16 153 129 163 125 5 -2 40 -16 78 -31z m1681 -26 c42 -33 76
-65 76 -70 0 -14 -72 -119 -82 -119 -13 0 -229 182 -223 188 5 6 133 59 146
61 4 1 41 -26 83 -60z m695 9 l34 -14 -110 -92 c-61 -51 -115 -92 -121 -92
-12 0 -84 108 -80 121 2 5 36 35 76 68 l74 60 46 -18 c26 -11 62 -25 81 -33z
m-2029 -118 c42 -16 45 -21 48 -56 l3 -39 -303 -118 c-167 -65 -313 -120 -325
-124 -23 -5 -23 -4 -23 81 0 47 3 86 8 86 4 0 16 -7 26 -15 11 -8 38 -15 61
-15 37 0 52 9 170 108 72 59 143 117 158 129 l29 22 51 -20 c29 -12 72 -29 97
-39z m1095 -41 c174 -147 192 -159 235 -159 20 0 45 7 56 15 10 8 22 15 27 15
4 0 7 -38 7 -85 0 -47 -3 -85 -7 -85 -5 0 -151 55 -326 122 l-318 122 3 39 3
39 95 38 c52 21 97 39 100 39 3 0 59 -45 125 -100z m-830 -3 c82 -22 214 -21
310 4 43 11 80 20 82 20 1 0 3 -22 3 -48 l0 -49 -89 -72 c-50 -40 -94 -84
-101 -101 -11 -27 -17 -30 -60 -30 -42 0 -49 3 -54 24 -3 14 -47 59 -101 105
-94 81 -95 82 -95 128 0 51 -8 50 105 19z m-975 -180 l0 -164 -45 -25 -45 -26
-1 102 c-1 56 -3 138 -5 182 -1 43 0 83 2 87 3 4 25 8 50 8 l44 0 0 -164z
m2338 -29 l2 -188 -50 26 -50 25 0 159 c0 86 3 161 7 165 4 4 25 6 48 4 l40
-3 3 -188z m-1451 -20 l73 -60 -22 -31 c-12 -17 -33 -45 -46 -63 l-24 -32
-109 91 c-60 49 -111 93 -114 98 -6 10 147 69 160 62 6 -3 43 -33 82 -65z
m686 21 c15 -6 27 -13 26 -16 0 -4 -23 -25 -52 -48 -29 -23 -80 -64 -114 -93
l-62 -52 -40 60 c-23 33 -41 64 -41 68 1 4 35 36 77 70 l75 62 52 -21 c28 -11
63 -25 79 -30z m403 -157 c270 -104 283 -110 340 -163 60 -55 102 -125 115
-191 7 -32 16 -57 20 -57 5 0 9 -85 9 -190 l0 -190 -170 0 -170 0 0 187 c0
202 -5 223 -56 223 -55 0 -54 12 -54 -536 l0 -504 -365 0 -365 0 0 645 c0 355
3 645 8 645 4 0 16 -7 26 -15 11 -8 38 -15 61 -15 38 0 53 9 191 125 82 68
156 124 164 125 9 0 119 -40 246 -89z m-806 -721 l0 -700 -50 0 -50 0 0 693
c0 382 3 697 7 700 3 4 26 7 50 7 l43 0 0 -700z m-2220 -75 l0 -255 -158 0
c-110 0 -162 4 -170 12 -9 9 -12 79 -12 255 l0 243 170 0 170 0 0 -255z m1170
-370 l0 -255 -158 0 c-110 0 -162 4 -170 12 -9 9 -12 79 -12 255 l0 243 170 0
170 0 0 -255z"/>
</g>
</svg>
