<?xml version="1.0" standalone="no"?>
<!DOCTYPE svg PUBLIC "-//W3C//DTD SVG 20010904//EN"
 "http://www.w3.org/TR/2001/REC-SVG-20010904/DTD/svg10.dtd">
<svg version="1.0" xmlns="http://www.w3.org/2000/svg"
 width="30px" height="30px" viewBox="0 0 485.000000 493.000000"
 preserveAspectRatio="xMidYMid meet">
<g transform="translate(0.000000,493.000000) scale(0.100000,-0.100000)"
 fill="rgb(0, 40, 90)" stroke="none">
<path d="M2281 4794 c-30 -8 -84 -29 -120 -47 -91 -44 -216 -169 -259 -257
-63 -131 -62 -121 -62 -822 l0 -637 -667 -3 -668 -3 -66 -26 c-103 -40 -158
-76 -236 -154 -112 -114 -167 -248 -166 -406 1 -163 56 -293 172 -409 87 -87
164 -131 277 -160 73 -19 113 -20 716 -20 l638 0 0 -638 c0 -702 -1 -694 63
-822 44 -89 159 -204 253 -253 341 -176 759 8 855 377 17 65 19 121 19 703 l0
632 663 3 662 3 69 24 c197 70 354 245 395 439 65 310 -136 623 -449 696 -55
13 -166 16 -702 16 l-637 0 -3 658 -3 657 -26 66 c-39 101 -76 158 -150 231
-72 71 -189 137 -279 157 -65 15 -226 12 -289 -5z"/>
</g>
</svg>
