<?xml version="1.0" standalone="no"?>
<!DOCTYPE svg PUBLIC "-//W3C//DTD SVG 20010904//EN"
 "http://www.w3.org/TR/2001/REC-SVG-20010904/DTD/svg10.dtd">
<svg version="1.0" xmlns="http://www.w3.org/2000/svg"
 width="30px" height="19px" viewBox="0 0 473.000000 305.000000"
 preserveAspectRatio="xMidYMid meet">
<g transform="translate(0.000000,305.000000) scale(0.100000,-0.100000)"
fill="rgb(0, 40, 90)" stroke="none">
<path d="M1310 2972 c-69 -27 -151 -60 -184 -75 l-58 -27 7 -36 c12 -65 23
-84 49 -84 20 0 25 -7 34 -43 22 -86 42 -234 42 -309 l0 -78 -35 0 c-33 0 -35
-2 -35 -32 0 -69 12 -110 34 -117 12 -3 -168 -8 -398 -11 l-420 -5 -20 -35
c-18 -29 -22 -56 -24 -161 -4 -136 20 -345 41 -365 7 -6 51 -28 100 -48 l87
-39 0 -172 c0 -94 3 -207 7 -250 l6 -78 56 -26 56 -26 -135 -5 -135 -5 -85
-45 c-251 -133 -348 -364 -245 -587 49 -108 154 -206 280 -263 l60 -27 2043 5
2042 4 0 104 0 104 -64 0 -65 0 -12 58 c-15 71 -6 246 19 357 l17 80 53 3 52
3 0 104 0 104 -127 3 -128 3 -3 63 c-2 46 -7 62 -17 62 -12 0 -15 24 -15 139
0 76 3 153 6 170 6 28 10 31 45 31 l39 0 0 75 0 74 -32 5 c-18 3 -51 7 -73 8
-40 3 -40 3 -47 53 -8 67 -10 228 -2 304 7 59 8 61 35 61 28 0 29 2 29 45 l0
45 118 0 c102 0 123 3 168 24 103 48 164 123 204 251 31 98 31 281 1 377 -39
123 -111 202 -228 250 l-58 23 -1480 2 -1480 2 -125 -47z m224 -276 c16 -103
20 -319 8 -364 -7 -22 -12 -23 -87 -24 -44 -1 -101 -1 -126 0 l-46 2 -6 163
c-3 89 -12 191 -20 227 -8 36 -14 66 -13 67 6 7 171 31 217 32 l56 1 17 -104z
m2832 79 c17 -13 43 -46 55 -72 20 -41 24 -63 24 -148 0 -116 -19 -180 -66
-220 l-31 -25 -1331 0 -1332 0 -1 143 c-1 105 -7 168 -23 241 -11 55 -21 101
-21 103 0 1 606 3 1347 3 l1346 0 33 -25z m-3758 -785 c54 -11 133 -30 176
-43 l79 -24 1 -167 1 -166 -25 5 c-14 3 -108 29 -210 58 l-185 52 -3 100 c-2
55 0 124 3 153 6 50 8 52 37 52 16 0 73 -9 126 -20z m3373 -160 c-1 -90 -3
-165 -4 -166 -1 -1 -621 -18 -1377 -38 -756 -19 -1426 -38 -1487 -41 l-113 -6
0 148 c0 81 3 157 6 169 5 20 13 21 272 27 362 9 1647 45 2187 61 242 8 457
13 479 12 l38 -1 -1 -165z m-3183 -593 c1 -86 0 -157 -3 -157 -3 0 -30 14 -60
31 l-55 31 0 118 c0 64 3 131 6 148 l6 31 52 -23 51 -22 3 -157z m3250 101
c-4 -46 -7 -123 -6 -171 l1 -89 -84 -3 c-46 -2 -280 -7 -519 -10 -239 -3 -568
-8 -730 -11 -853 -15 -1443 -24 -1597 -24 l-173 0 0 170 0 170 188 1 c103 0
738 11 1412 23 674 13 1290 24 1370 25 l146 1 -8 -82z m174 -603 c3 -3 -3 -37
-13 -75 -29 -110 -42 -223 -37 -325 l4 -95 -1586 2 -1587 3 -35 27 c-54 41
-73 101 -73 224 0 95 2 104 30 150 18 28 47 58 70 71 l40 23 1591 0 c875 0
1593 -2 1596 -5z"/>
</g>
</svg>
